<?xml version="1.0" encoding="UTF-8"?>
<svg width="70px" height="175px" viewBox="0 0 70 175" version="1.1" xmlns="http://www.w3.org/2000/svg" xmlns:xlink="http://www.w3.org/1999/xlink">
    <!-- Generator: Sketch 58 (84663) - https://sketch.com -->
    <title>icons pattern</title>
    <desc>Created with Sketch.</desc>
    <g id="icons-pattern" stroke="none" stroke-width="1" fill="none" fill-rule="evenodd" stroke-linecap="round" stroke-linejoin="round">
        <g stroke="#FFFFFF" stroke-width="2">
            <g id="Group-3">
                <g id="music" transform="translate(9.000000, 9.000000)">
                    <polyline id="Path" points="6 15 6 2 18 0 18 13"></polyline>
                    <circle id="Oval" cx="3" cy="15" r="3"></circle>
                    <circle id="Oval" cx="15" cy="13" r="3"></circle>
                </g>
            </g>
            <g id="Group-3-Copy" transform="translate(0.000000, 35.000000)">
                <g id="play-circle" transform="translate(8.000000, 8.000000)">
                    <circle id="Oval" cx="10" cy="10" r="10"></circle>
                    <polygon id="Path" points="8 6 14 10 8 14"></polygon>
                </g>
            </g>
            <g id="Group-3-Copy-2" transform="translate(0.000000, 70.000000)">
                <g id="radio" transform="translate(8.000000, 10.000000)">
                    <circle id="Oval" cx="10" cy="8" r="2"></circle>
                    <path d="M14.24,3.76 C15.3666623,4.88540954 15.9997199,6.41254451 15.9997199,8.005 C15.9997199,9.59745549 15.3666623,11.1245905 14.24,12.25 M5.76,12.24 C4.63333774,11.1145905 4.00028006,9.58745549 4.00028006,7.995 C4.00028006,6.40254451 4.63333774,4.87540954 5.76,3.75 M17.07,0.93 C20.9738194,4.83499851 20.9738194,11.1650015 17.07,15.07 M2.93,15.07 C-0.973819383,11.1650015 -0.973819383,4.83499851 2.93,0.93" id="Shape"></path>
                </g>
            </g>
            <g id="Group-3-Copy-3" transform="translate(0.000000, 105.000000)">
                <g id="download-cloud" transform="translate(6.000000, 8.000000)">
                    <polyline id="Path" points="8 15 12 19 16 15"></polyline>
                    <path d="M12,10 L12,19" id="Path"></path>
                    <path d="M20.88,16.09 C22.6641359,14.8353957 23.4291619,12.5690557 22.7703958,10.4898251 C22.1116296,8.41059447 20.1810938,6.99829391 18,7 L16.74,7 C15.9163145,3.78994369 13.198686,1.42008673 9.90640275,1.04088975 C6.61411951,0.661692769 3.42888903,2.35167313 1.89699969,5.2904202 C0.365110346,8.22916726 0.803758542,11.8081775 3,14.29" id="Path"></path>
                </g>
            </g>
            <g id="Group-3-Copy-4" transform="translate(0.000000, 140.000000)">
                <g id="headphones" transform="translate(9.000000, 9.000000)">
                    <path d="M0,15.0000001 L0,9.00000013 C0,4.0294373 4.0294373,1.3411045e-07 9,1.3411045e-07 C13.9705627,1.3411045e-07 18,4.0294373 18,9.00000013 L18,15.0000001" id="Path"></path>
                    <path d="M18,16 C18,17.1045695 17.1045695,18 16,18 L15,18 C13.8954305,18 13,17.1045695 13,16 L13,13 C13,11.8954305 13.8954305,11 15,11 L18,11 L18,16 Z M0,16 C0,17.1045695 0.8954305,18 2,18 L3,18 C4.1045695,18 5,17.1045695 5,16 L5,13 C5,11.8954305 4.1045695,11 3,11 L0,11 L0,16 Z" id="Shape"></path>
                </g>
            </g>
            <g id="Group-3-Copy-9" transform="translate(35.000000, 0.000000)">
                <g id="mic" transform="translate(11.000000, 6.000000)">
                    <path d="M7,0 C5.34314575,0 4,1.34314575 4,3 L4,11 C4,12.6568542 5.34314575,14 7,14 C8.65685425,14 10,12.6568542 10,11 L10,3 C10,1.34314575 8.65685425,0 7,0 Z" id="Path"></path>
                    <path d="M14,9 L14,11 C14,14.8659932 10.8659932,18 7,18 C3.13400679,18 -1.77635684e-15,14.8659932 -1.77635684e-15,11 L-1.77635684e-15,9" id="Path"></path>
                    <path d="M7,18 L7,22" id="Path"></path>
                    <path d="M3,22 L11,22" id="Path"></path>
                </g>
            </g>
            <g id="Group-3-Copy-8" transform="translate(35.000000, 35.000000)">
                <g id="volume-2" transform="translate(8.000000, 10.000000)">
                    <polygon id="Path" points="9 1 4 5 0 5 0 11 4 11 9 15"></polygon>
                    <path d="M17.07,0.93 C20.9738194,4.83499851 20.9738194,11.1650015 17.07,15.07 M13.54,4.46 C15.4919097,6.41249926 15.4919097,9.57750074 13.54,11.53" id="Shape"></path>
                </g>
            </g>
            <g id="Group-3-Copy-7" transform="translate(35.000000, 70.000000)">
                <g id="fast-forward" transform="translate(8.000000, 11.000000)">
                    <polygon id="Path" points="11 14 20 7 11 0"></polygon>
                    <polygon id="Path" points="0 14 9 7 0 0"></polygon>
                </g>
            </g>
            <g id="Group-3-Copy-6" transform="translate(35.000000, 105.000000)">
                <g id="pause-circle" transform="translate(8.000000, 8.000000)">
                    <circle id="Oval" cx="10" cy="10" r="10"></circle>
                    <path d="M8,13 L8,7" id="Path"></path>
                    <path d="M12,13 L12,7" id="Path"></path>
                </g>
            </g>
            <g id="Group-3-Copy-5" transform="translate(35.000000, 140.000000)">
                <g id="skip-forward" transform="translate(10.000000, 10.000000)">
                    <polygon id="Path" points="0 0 10 8 0 16"></polygon>
                    <path d="M14,1 L14,15" id="Path"></path>
                </g>
            </g>
        </g>
    </g>
</svg>